<?xml version="1.0" standalone="no"?><svg xmlns="http://www.w3.org/2000/svg" viewBox="0 0 1440 320"><path fill="#8cbe6f" fill-opacity="1" d="M0,32L30,64C60,96,120,160,180,197.3C240,235,300,245,360,240C420,235,480,213,540,181.3C600,149,660,107,720,117.3C780,128,840,192,900,186.7C960,181,1020,107,1080,101.3C1140,96,1200,160,1260,197.3C1320,235,1380,245,1410,250.7L1440,256L1440,320L1410,320C1380,320,1320,320,1260,320C1200,320,1140,320,1080,320C1020,320,960,320,900,320C840,320,780,320,720,320C660,320,600,320,540,320C480,320,420,320,360,320C300,320,240,320,180,320C120,320,60,320,30,320L0,320Z"></path></svg>